# Blender v2.77 (sub 0) OBJ File: 'HauntedHouse.blend'
# www.blender.org
mtllib CookingMuseumBuilding.mtl
o TossaCookingMuseum_TossaCookingMuseumMesh
v -10.000000 0.000000 1.000000
v -10.000000 8.000000 1.000000
v -10.000000 8.000000 -11.000000
v 10.000000 0.000000 1.000000
v 10.000000 8.000000 1.000000
v 10.000000 8.000000 -11.000000
v -10.000000 9.679731 -5.000000
v -10.000000 0.000000 -5.000000
v 10.000000 9.679731 -5.000000
v 10.000000 0.000000 -5.000000
vt 0.9999 0.3025
vt 0.8124 0.2501
vt 0.8124 0.0001
vt 0.9999 0.0001
vt 0.1876 0.2501
vt 0.1876 0.0001
vt 0.0453 0.6964
vt 0.0453 0.4144
vt 0.9505 0.4144
vt 0.9505 0.6964
vt 0.0453 0.9784
vt 0.9505 0.9784
vt 0.0001 0.3025
vt 0.0001 0.0001
vn 1.0000 0.0000 0.0000
vn 0.0000 0.0000 1.0000
vn 0.0000 0.9630 -0.2696
vn 0.0000 0.9630 0.2696
vn -1.0000 0.0000 0.0000
usemtl TossaCookingMuseum
s off
f 9/1/1 5/2/1 4/3/1 10/4/1
f 5/2/2 2/5/2 1/6/2 4/3/2
f 9/7/3 6/8/3 3/9/3 7/10/3
f 5/11/4 9/7/4 7/10/4 2/12/4
f 2/5/5 7/13/5 8/14/5 1/6/5
